<?xml version="1.0" encoding="UTF-8" standalone="no"?>
<svg
   xmlns:dc="http://purl.org/dc/elements/1.1/"
   xmlns:cc="http://creativecommons.org/ns#"
   xmlns:rdf="http://www.w3.org/1999/02/22-rdf-syntax-ns#"
   xmlns:svg="http://www.w3.org/2000/svg"
   xmlns="http://www.w3.org/2000/svg"
   id="svg8"
   version="1.1"
   viewBox="0 0 100 100.00002"
   height="100.00002mm"
   width="100mm">
  <defs
     id="defs2" />
  <metadata
     id="metadata5">
    <rdf:RDF>
      <cc:Work
         rdf:about="">
        <dc:format>image/svg+xml</dc:format>
        <dc:type
           rdf:resource="http://purl.org/dc/dcmitype/StillImage" />
        <dc:title></dc:title>
      </cc:Work>
    </rdf:RDF>
  </metadata>
  <g
     transform="translate(-56.703571,-149.96679)"
     id="layer1">
    <path
       d="m 56.703571,153.96682 v 32.00002 a 4.0000001,4.0000001 0 0 0 4,3.99998 h 30.34315 a 13.656854,13.656854 0 0 0 9.656849,-3.99998 l 30.34315,-30.34319 a 3.3137085,3.3137085 0 0 0 -2.34315,-5.65686 H 60.703571 a 4.0000001,4.0000001 0 0 0 -4,4.00003 z m 95.999999,0 -31.75735,31.75734 a 14.485282,14.485282 0 0 0 -4.24265,10.24268 v 49.99998 a 4.0000001,4.0000001 0 0 0 4,3.99999 h 26 a 10,10 0 0 0 10,-10 v -84.34316 a 2.3431458,2.3431458 0 0 0 -4,-1.65683 z m -95.999999,55.49999 v 36 a 4.5000001,4.5000001 0 0 0 4.5,4.5 h 36 a 4.5000001,4.5000001 0 0 0 4.499999,-4.5 v -36 a 4.5000001,4.5000001 0 0 0 -4.499999,-4.49999 h -36 a 4.5000001,4.5000001 0 0 0 -4.5,4.49999 z"
       style="fill:#0d6efd;fill-opacity:1;fill-rule:evenodd;stroke:none;stroke-width:19.9999;stroke-linecap:square;stroke-opacity:1;paint-order:markers fill stroke"
       id="rect904" />
  </g>
</svg>
